<?xml version="1.0" encoding="UTF-8" standalone="no"?>
<svg
   width="16"
   height="16"
   version="1.1"
   id="svg226"
   sodipodi:docname="asyncapi.svg"
   inkscape:version="1.1.1 (c3084ef, 2021-09-22)"
   xmlns:inkscape="http://www.inkscape.org/namespaces/inkscape"
   xmlns:sodipodi="http://sodipodi.sourceforge.net/DTD/sodipodi-0.dtd"
   xmlns:xlink="http://www.w3.org/1999/xlink"
   xmlns="http://www.w3.org/2000/svg"
   xmlns:svg="http://www.w3.org/2000/svg">
  <defs
     id="defs230">
    <linearGradient
       x1="-666.11664"
       y1="413.04492"
       x2="-553.2699"
       y2="525.90759"
       id="linearGradient3005"
       xlink:href="#linearGradient8385"
       gradientUnits="userSpaceOnUse"
       gradientTransform="matrix(0.0333159,0,0,0.0333112,28.130519,-8.7819927)" />
    <linearGradient
       id="linearGradient8385">
      <stop
         id="stop8387"
         style="stop-color:#000000;stop-opacity:1"
         offset="0" />
      <stop
         id="stop8389"
         style="stop-color:#ffffff;stop-opacity:1"
         offset="1" />
    </linearGradient>
    <linearGradient
       x1="-553.26971"
       y1="525.90778"
       x2="-666.11639"
       y2="413.0452"
       id="linearGradient3002"
       xlink:href="#linearGradient8385"
       gradientUnits="userSpaceOnUse"
       gradientTransform="matrix(0.0333159,0,0,0.0333112,28.130519,-8.7819927)" />
  </defs>
  <sodipodi:namedview
     id="namedview228"
     pagecolor="#ffffff"
     bordercolor="#666666"
     borderopacity="1.0"
     inkscape:pageshadow="2"
     inkscape:pageopacity="0.0"
     inkscape:pagecheckerboard="0"
     showgrid="false"
     showguides="false"
     inkscape:zoom="27.026593"
     inkscape:cx="-5.291085"
     inkscape:cy="1.0730172"
     inkscape:window-width="1983"
     inkscape:window-height="1314"
     inkscape:window-x="2260"
     inkscape:window-y="226"
     inkscape:window-maximized="0"
     inkscape:current-layer="svg226" />
  <style
     type="text/css"
     id="style220">.icon-canvas-transparent{opacity:0;fill:#F6F6F6;} .icon-vs-out{opacity:0;fill:#F6F6F6;} .icon-vs-bg{fill:#656565;} .icon-vs-fg{fill:#F0EFF1;}</style>
  <g
     id="g856"
     transform="matrix(0.11668202,0,0,0.11668202,2.5839128,1.0470465)"
     style="fill:#f0eff1;fill-opacity:1">
    <g
       fill="#1d1d1b"
       id="g837"
       style="fill:#f0eff1;fill-opacity:1" />
    <path
       fill="#4775b9"
       d="m 46.5,121.416 c -23.583,0 -42.768,-14.301 -42.768,-31.879 h 8.469 c 0,12.908 15.387,23.408 34.299,23.408 18.912,0 34.299,-10.5 34.299,-23.408 h 8.469 C 89.269,107.115 70.085,121.416 46.5,121.416 Z M 89.269,33.878 H 80.8 c 0,-12.906 -15.387,-23.407 -34.299,-23.407 -18.912,0 -34.299,10.5 -34.299,23.407 H 3.732 C 3.732,16.3 22.918,2 46.5,2 70.085,2 89.269,16.3 89.269,33.878 Z"
       id="path839"
       style="fill:#f0eff1;fill-opacity:1" />
    <path
       fill="#63ba90"
       d="m 6.715,57.486 h 54.4 v 8.469 h -54.4 z"
       transform="rotate(35.914,33.912,61.719)"
       id="path841"
       style="fill:#f0eff1;fill-opacity:1" />
    <path
       fill="#63ba90"
       d="m 32.225,57.438 h 54.4 v 8.468 h -54.4 z"
       transform="rotate(35.914,59.422,61.671)"
       id="path843"
       style="fill:#f0eff1;fill-opacity:1" />
  </g>
  <path
     class="icon-canvas-transparent"
     d="M16 16h-16v-16h16v16z"
     id="canvas" />
  <path
     class="icon-vs-out"
     d="M4 15c-.97 0-2-.701-2-2v-10c0-1.299 1.03-2 2-2h6.061l3.939 3.556v8.444c0 .97-.701 2-2 2h-8z"
     id="outline" />
</svg>
