<?xml version="1.0" encoding="UTF-8" standalone="no"?>
<svg
   width="16"
   height="16"
   version="1.1"
   id="svg226"
   sodipodi:docname="avro.svg"
   inkscape:version="1.1.1 (c3084ef, 2021-09-22)"
   xmlns:inkscape="http://www.inkscape.org/namespaces/inkscape"
   xmlns:sodipodi="http://sodipodi.sourceforge.net/DTD/sodipodi-0.dtd"
   xmlns="http://www.w3.org/2000/svg"
   xmlns:svg="http://www.w3.org/2000/svg">
  <defs
     id="defs230" />
  <sodipodi:namedview
     id="namedview228"
     pagecolor="#ffffff"
     bordercolor="#666666"
     borderopacity="1.0"
     inkscape:pageshadow="2"
     inkscape:pageopacity="0.0"
     inkscape:pagecheckerboard="0"
     showgrid="false"
     showguides="true"
     inkscape:zoom="20.583769"
     inkscape:cx="-16.857943"
     inkscape:cy="-4.1294673"
     inkscape:window-width="1983"
     inkscape:window-height="1314"
     inkscape:window-x="2260"
     inkscape:window-y="226"
     inkscape:window-maximized="0"
     inkscape:current-layer="svg226" />
  <style
     type="text/css"
     id="style220">.icon-canvas-transparent{opacity:0;fill:#F6F6F6;} .icon-vs-out{opacity:0;fill:#F6F6F6;} .icon-vs-bg{fill:#656565;} .icon-vs-fg{fill:#F0EFF1;}</style>
  <path
     d="M 13.521585,10.061341 H 2.5966489 C 2.6618961,9.9525943 2.7658108,9.9032955 2.8528082,9.843364 L 7.8305074,6.4958989 C 7.975503,6.3919853 8.0813496,6.3871521 8.2393946,6.4903404 l 4.9554674,3.336349 0.327207,0.2344096 z"
     fill="#0040fe"
     id="path21987"
     style="fill:#f0eff1;fill-opacity:1;stroke-width:0.241659" />
  <path
     d="M 14.563137,10.344566 H 1.4956487 c -0.0435,-0.179795 0.1039141,-0.239968 0.2126602,-0.31609 L 3.6164516,8.7365644 C 3.3984744,8.7201319 3.1858142,8.7474392 2.9840287,8.6766329 2.8859152,8.6440086 2.7878017,8.6058268 2.7061207,8.5403371 1.9973338,7.9845205 1.3760278,7.330107 0.83084437,6.6104455 0.77622716,6.5396393 0.72693035,6.4685914 0.6616825,6.414218 0.4490223,6.23974 0.34027544,6.0106469 0.29097727,5.7491716 V 5.5887098 C 0.46013846,5.5505244 0.59063483,5.6377686 0.71629768,5.7192055 1.3325288,6.1334099 2.0193247,6.2044578 2.7334279,6.1715921 3.4257823,6.1389678 4.1125783,6.0352962 4.8104904,5.9862393 c 0.7631599,-0.054615 1.5103709,0.00556 2.2297905,0.2670336 0.1449956,0.054615 0.2670339,-0.00556 0.3871384,-0.081681 0.6162318,-0.4142039 0.5727327,-0.4142039 1.188481,0 0.1527287,0.1039135 0.2943412,0.1256628 0.4635024,0.059932 0.8777069,-0.3272068 1.7882793,-0.2996576 2.6986103,-0.1962274 0.579982,0.065248 1.155857,0.1449956 1.738981,0.1580452 0.643297,0.010875 1.280794,-0.086997 1.837094,-0.4852521 0.114547,-0.081681 0.245284,-0.1636034 0.403571,-0.119863 v 0.158045 C 15.7086,6.0079887 15.564332,6.2097742 15.39517,6.4168763 l -0.817775,0.9758205 c -0.250843,0.3107739 -0.531651,0.594482 -0.855958,0.8288916 -0.07636,0.054615 -0.158045,0.1087467 -0.223535,0.1797946 -0.201785,0.2344095 -0.468819,0.3214069 -0.768477,0.3325232 -0.0928,0.00556 -0.193327,-0.00556 -0.289024,0.010875 0.637981,0.430637 1.286595,0.8395243 1.902585,1.2919108 0.119863,0.07081 0.272591,0.125663 0.223534,0.305216 z"
     fill="#0040fe"
     id="path21945"
     style="fill:#f0eff1;fill-opacity:1;stroke-width:0.241659" />
  <g
     id="g54030"
     style="fill:#656565;fill-opacity:1"
     transform="matrix(0.67620656,0,0,0.67620656,16.107461,12.646461)">
    <path
       d="m -19.174065,-7.7819756 c 0.491748,-0.00822 0.983496,0.00822 1.467382,-0.1047109 0.185835,-0.040383 0.2859,0.072547 0.338434,0.2859 -0.62898,0.035737 -1.233658,0.137232 -1.805816,-0.177258 z"
       fill="#f4f6fe"
       id="path21951"
       style="fill:#656565;fill-opacity:1;stroke-width:0.357375" />
    <path
       d="m -19.157983,-7.4024433 c 0.661144,0.2097791 1.33015,0.064328 2.055979,0.064328 -0.475309,0.31449 -1.685024,0.2859 -2.055979,-0.064328 z"
       fill="#d8e1fe"
       id="path21961"
       style="fill:#656565;fill-opacity:1;stroke-width:0.357375" />
    <path
       d="m -21.560615,-8.8541008 c 0.410981,0.2015596 0.894867,0.2258611 1.265822,0.5160496 -0.475309,-0.040383 -0.88629,-0.2501625 -1.265822,-0.5160496 z"
       fill="#fafbfe"
       id="path21967"
       style="fill:#656565;fill-opacity:1;stroke-width:0.357375" />
    <path
       d="m -19.206229,-6.2738529 c -0.08077,0.016082 -0.145094,-0.00822 -0.214425,-0.1129305 0.192983,-0.048246 0.362736,-0.016082 0.536063,0.035737 -0.08077,0.1129305 -0.214425,0.00822 -0.31449,0.080767 z"
       fill="#9fb7fe"
       id="path21975"
       style="fill:#656565;fill-opacity:1;stroke-width:0.357375" />
    <path
       d="m -20.7458,-8.1200524 c -0.05647,0.024301 -0.104711,0.056465 -0.160819,0.080767 -0.104711,-0.035737 -0.214425,-0.040383 -0.241943,-0.2015595 0.153671,-0.024301 0.2859,0.048246 0.403119,0.1207928 z"
       fill="#d1dcfe"
       id="path21983"
       style="fill:#656565;fill-opacity:1;stroke-width:0.357375" />
    <g
       id="g50569"
       style="fill:#656565;fill-opacity:1"
       transform="matrix(0.35737505,0,0,0.35737505,-22.068088,-19.407386)">
      <path
         d="M 53.487,44.33 H 3.18 L 5.368,42.796 27.6,27.862 c 0.45,-0.316 0.8,-0.474 1.33,-0.1 l 24.093,16.242 c 0.1,0.023 0.203,0.113 0.45,0.316 z"
         fill="#fbfbfe"
         id="path21947"
         style="fill:#656565;fill-opacity:1" />
      <path
         d="m 24.025,29.35 -4.128,2.775 c -0.248,0.158 -0.45,0.338 -0.744,0.045 -1.782,-1.647 -4.06,-1.692 -6.27,-1.805 C 9.905,30.207 6.905,30.23 3.995,29.44 A 16.16,16.16 0 0 1 1.784,28.65 c 4.963,0.677 9.8,-0.587 14.708,-0.722 2.2,-0.068 4.376,0.113 6.497,0.835 0.338,0.113 0.744,0.18 1.038,0.587 z m 8.505,-0.1 c 1.895,-0.947 3.812,-1.196 5.753,-1.308 2.685,-0.158 5.324,0.226 7.963,0.496 2.82,0.293 5.662,0.564 8.505,0.18 -1.805,0.902 -3.722,1.286 -5.685,1.444 l -7.016,0.43 c -1.624,0.113 -3.226,0.43 -4.5,1.602 -0.27,0.248 -0.474,0.248 -0.744,0.068 l -4.286,-2.9 z"
         fill="#fefefe"
         id="path21949"
         style="fill:#656565;fill-opacity:1" />
      <path
         d="m 6.294,30.75 c 1.737,0.384 3.587,0 5.28,0.632 -1.85,0.564 -3.632,0.43 -5.28,-0.632 z m 38.8,0.676 c 1.67,-0.7 3.43,-0.293 5.12,-0.6 -1.602,1.06 -3.34,1.06 -5.12,0.6 z"
         fill="#eaeffe"
         id="path21953"
         style="fill:#656565;fill-opacity:1" />
      <path
         d="m 43.516,32.982 c 0.18,-0.632 0.52,-0.857 1.06,-0.722 1.24,0.27 2.48,0.27 3.8,0.18 -0.7,0.744 -2.278,0.925 -4.85,0.54 z"
         fill="#f4f6fe"
         id="path21955"
         style="fill:#656565;fill-opacity:1" />
      <path
         d="m 46.968,35.013 c -0.857,0.97 -1.918,0.744 -2.888,0.6 -0.54,-0.068 -1.624,0.068 -1.557,-0.474 0.135,-0.767 1.015,-0.113 1.557,-0.135 h 2.888 z m -37.3,0.225 3.903,-0.384 c 0.226,-0.045 0.564,-0.113 0.6,0.248 0.068,0.384 -0.27,0.338 -0.496,0.384 -1.354,0.158 -2.707,0.54 -4.016,-0.248 z"
         fill="#eaeffe"
         id="path21957"
         style="fill:#656565;fill-opacity:1" />
      <path
         d="m 48.502,33.682 c -1.805,1.24 -3.722,0.52 -5.595,0.293 0.902,-0.36 1.827,-0.068 2.752,-0.045 0.97,0.023 1.895,-0.203 2.842,-0.248 z"
         fill="#d8e2fe"
         id="path21959"
         style="fill:#656565;fill-opacity:1" />
      <path
         d="m 53.42,31.8 c -1.354,0.722 -2.662,1.083 -3.812,1.06 0.36,-0.677 1.06,-0.632 1.602,-0.812 0.564,-0.203 1.173,-0.316 1.76,-0.474 0.248,-0.113 0.45,-0.18 0.45,0.226 z M 3.7,31.584 c 1.083,0.338 2.233,0.474 3.18,1.196 -1.308,0.045 -2.504,-0.36 -3.632,-0.97 -0.023,-0.406 0.203,-0.338 0.45,-0.226 z"
         fill="#f1f4fe"
         id="path21963"
         style="fill:#656565;fill-opacity:1" />
      <path
         d="m 7.512,34.246 c -1.173,0 -2.256,-0.316 -3.294,-0.835 1.173,0.023 2.324,0.135 3.294,0.835 z M 52.314,33.39 c -0.993,0.677 -2.075,0.8 -3.18,1.015 0.384,-0.632 1.963,-1.128 3.18,-1.015 z"
         fill="#e4ebfe"
         id="path21965"
         style="fill:#656565;fill-opacity:1" />
      <path
         d="m 54.344,30.095 c -0.835,0.54 -1.805,0.744 -2.933,1.128 0.722,-1.15 1.782,-1.038 2.662,-1.354 0.113,0.068 0.248,0.1 0.27,0.226 z"
         fill="#ecf1fe"
         id="path21969"
         style="fill:#656565;fill-opacity:1" />
      <path
         d="m 5.436,34.765 3.632,0.7 c -1.33,0.36 -2.436,0.158 -3.632,-0.7 z M 50.78,35 a 3.73,3.73 0 0 1 -2.9,0.61 c 0.902,-0.52 1.918,-0.474 2.9,-0.6 z"
         fill="#e6ecfe"
         id="path21971"
         style="fill:#656565;fill-opacity:1" />
      <path
         d="m 10.94,36.547 2.188,-0.18 c -0.677,0.993 -1.105,1.015 -2.188,0.18 z m 32.486,-0.203 2.3,0.18 c -1.083,0.857 -1.444,0.835 -2.3,-0.18 z"
         fill="#d2ddfe"
         id="path21973"
         style="fill:#656565;fill-opacity:1" />
      <path
         d="m 8.008,36.75 0.88,-0.226 c 0.316,0.045 0.7,-0.113 1.105,0.18 -0.722,0.27 -1.354,0.113 -1.985,0.045 z m 40.63,0 c -0.632,0.068 -1.24,0.18 -1.94,0 0.338,-0.406 0.722,-0.135 1.06,-0.226 0.316,-0.023 0.722,-0.316 0.88,0.226 z"
         fill="#fcfdfe"
         id="path21977"
         style="fill:#656565;fill-opacity:1" />
      <path
         d="m 53.42,31.8 a 4.03,4.03 0 0 1 -0.45,-0.226 c 0.384,-0.203 0.744,-0.52 1.308,-0.43 -0.158,0.45 -0.496,0.564 -0.857,0.654 z"
         fill="#d5dffe"
         id="path21979"
         style="fill:#656565;fill-opacity:1" />
      <path
         d="m 54.344,30.095 a 2.39,2.39 0 0 1 -0.271,-0.226 l 1.196,-0.474 c -0.27,0.564 -0.6,0.654 -0.925,0.7 z"
         fill="#fafbfe"
         id="path21985"
         style="fill:#656565;fill-opacity:1" />
      <g
         id="g68938">
        <path
           d="m 37.425,42.615 h -2.707 a 0.68,0.68 0 0 1 -0.632,-0.316 l -2.73,-4.016 c -0.248,-0.36 -0.226,-0.474 0.226,-0.654 2.256,-0.925 2.685,-2.188 1.466,-4.3 -0.135,-0.226 -0.43,-0.406 -0.27,-0.925 l 5.008,3.36 c -2.888,1.58 -3.136,4.783 -0.36,6.858 z"
           fill="#fefefe"
           id="path21989"
           style="fill:#f0eff1;fill-opacity:1" />
        <path
           d="m 28.063,29.7 v 12.272 c 0,0.45 -0.135,0.677 -0.6,0.632 H 27.35 c -2.888,0.158 -2.9,0.135 -2.2,-2.64 l 2.324,-9.407 c 0.068,-0.293 0.045,-0.654 0.6,-0.857 z"
           fill="#fbfcfe"
           id="path21991"
           style="fill:#f0eff1;fill-opacity:1" />
        <path
           d="m 22.83,42.525 -0.18,0.068 c -2.73,0.203 -2.73,0.203 -3.474,-2.436 l -0.88,-2.978 c -0.248,-0.677 -0.113,-1.015 0.474,-1.4 1.782,-1.15 1.76,-1.173 2.346,0.8 l 1.714,5.956 z"
           fill="#fdfefe"
           id="path21993"
           style="fill:#f0eff1;fill-opacity:1" />
        <path
           d="m 47.644,42.615 h -7.85 c 1.5,-1.083 2.03,-2.46 1.714,-4.354 l 6.204,4.15 c 0,0.068 -0.045,0.135 -0.068,0.203 z M 8.9,42.435 l 7.22,-4.85 -1.263,4.692 c -0.113,0.45 -0.474,0.36 -0.8,0.36 H 9 C 8.977,42.537 8.955,42.502 8.9,42.434 Z"
           fill="#fdfdfe"
           id="path21995"
           style="fill:#f0eff1;fill-opacity:1" />
        <path
           d="M 25.694,31.155 23.7,39.23 a 0.66,0.66 0 0 1 -0.203,0.045 l -1.534,-5.3 c -0.068,-0.248 0.1,-0.406 0.27,-0.52 l 3.452,-2.3 z"
           fill="#fcfdfe"
           id="path21997"
           style="fill:#f0eff1;fill-opacity:1" />
        <path
           d="m 40.064,39.254 c 0,1.128 -0.7,2.008 -1.557,1.985 -0.8,-0.023 -1.5,-0.902 -1.5,-1.94 -0.023,-1.06 0.7,-2.03 1.5,-2.053 0.857,0 1.557,0.902 1.557,2.008 z M 29.597,31.697 c 1.083,1.015 1.963,1.895 2.436,3.068 0.203,0.52 0.135,0.925 -0.384,1.173 -0.6,0.27 -1.263,0.52 -1.94,0.316 -0.068,-0.023 -0.1,-0.248 -0.1,-0.384 l -0.023,-4.173 z"
           fill="#fcfcfe"
           id="path21999"
           style="fill:#f0eff1;fill-opacity:1" />
        <path
           d="m 29.823,38.78 2.617,3.858 h -2.436 c -0.18,0 -0.384,-0.045 -0.384,-0.27 v -3.564 c 0.068,-0.023 0.135,-0.023 0.203,-0.023 z"
           fill="#fcfdfe"
           id="path22001"
           style="fill:#f0eff1;fill-opacity:1" />
        <path
           d="m 16.5,42.457 c 0.54,-0.293 1.083,-0.293 1.624,0 a 2.24,2.24 0 0 1 -1.624,0 z"
           fill="#fefefe"
           id="path22003"
           style="fill:#f0eff1;fill-opacity:1" />
        <path
           d="m 17.302,39.682 c 0.158,0.316 0.474,0.6 0.18,0.97 -0.045,0.068 -0.338,0.068 -0.406,0 -0.27,-0.338 0.045,-0.632 0.226,-0.97 z"
           fill="#dae3fe"
           id="path22005"
           style="fill:#f0eff1;fill-opacity:1" />
      </g>
    </g>
  </g>
</svg>
