<?xml version="1.0" encoding="UTF-8" standalone="no"?>
<svg
   width="16"
   height="16"
   version="1.1"
   id="svg226"
   sodipodi:docname="kkonect.svg"
   inkscape:version="1.1.1 (c3084ef, 2021-09-22)"
   xmlns:inkscape="http://www.inkscape.org/namespaces/inkscape"
   xmlns:sodipodi="http://sodipodi.sourceforge.net/DTD/sodipodi-0.dtd"
   xmlns:xlink="http://www.w3.org/1999/xlink"
   xmlns="http://www.w3.org/2000/svg"
   xmlns:svg="http://www.w3.org/2000/svg">
  <defs
     id="defs230">
    <linearGradient
       x1="-666.11664"
       y1="413.04492"
       x2="-553.2699"
       y2="525.90759"
       id="linearGradient3005"
       xlink:href="#linearGradient8385"
       gradientUnits="userSpaceOnUse"
       gradientTransform="matrix(0.0333159,0,0,0.0333112,28.130519,-8.7819927)" />
    <linearGradient
       id="linearGradient8385">
      <stop
         id="stop8387"
         style="stop-color:#000000;stop-opacity:1"
         offset="0" />
      <stop
         id="stop8389"
         style="stop-color:#ffffff;stop-opacity:1"
         offset="1" />
    </linearGradient>
    <linearGradient
       x1="-553.26971"
       y1="525.90778"
       x2="-666.11639"
       y2="413.0452"
       id="linearGradient3002"
       xlink:href="#linearGradient8385"
       gradientUnits="userSpaceOnUse"
       gradientTransform="matrix(0.0333159,0,0,0.0333112,28.130519,-8.7819927)" />
  </defs>
  <sodipodi:namedview
     id="namedview228"
     pagecolor="#ffffff"
     bordercolor="#666666"
     borderopacity="1.0"
     inkscape:pageshadow="2"
     inkscape:pageopacity="0.0"
     inkscape:pagecheckerboard="0"
     showgrid="false"
     showguides="false"
     inkscape:zoom="19.079334"
     inkscape:cx="-3.4068275"
     inkscape:cy="19.445123"
     inkscape:window-width="1983"
     inkscape:window-height="1314"
     inkscape:window-x="2260"
     inkscape:window-y="226"
     inkscape:window-maximized="0"
     inkscape:current-layer="svg226" />
  <style
     type="text/css"
     id="style220">.icon-canvas-transparent{opacity:0;fill:#F6F6F6;} .icon-vs-out{opacity:0;fill:#F6F6F6;} .icon-vs-bg{fill:#656565;} .icon-vs-fg{fill:#F0EFF1;}</style>
  <path
     d="m 10.433311,8.8899132 c -0.5559549,0 -1.0543762,0.2463086 -1.3956905,0.6340953 L 8.163021,8.904851 C 8.255863,8.6492347 8.3091718,8.3747611 8.3091718,8.087475 c 0,-0.2823043 -0.051459,-0.5521768 -0.1412389,-0.8040129 L 9.0405743,6.6708673 c 0.3412811,0.3858324 0.8383977,0.6307974 1.3927367,0.6307974 1.026144,0 1.861104,-0.8348197 1.861104,-1.8611031 0,-1.0262773 -0.83496,-1.861103 -1.861104,-1.861103 -1.0261412,0 -1.861104,0.8348257 -1.861104,1.861103 0,0.1836952 0.027749,0.3608221 0.077552,0.5285798 l -0.87322,0.612906 C 7.4117645,6.1295096 6.8865522,5.8135479 6.2881427,5.7170982 V 4.6646786 C 7.131177,4.4876151 7.7663713,3.7385919 7.7663713,2.8435887 c 0,-1.0262774 -0.8349617,-1.86110328 -1.8611031,-1.86110328 -1.0261427,0 -1.8611046,0.83482588 -1.8611046,1.86110328 0,0.8830187 0.6187418,1.622802 1.4449116,1.8125002 V 5.7221827 C 4.3615718,5.9200924 3.501364,6.9040884 3.501364,8.087475 c 0,1.1891622 0.8687264,2.176765 2.0043689,2.36794 v 1.125721 c -0.8346186,0.18345 -1.4615693,0.927767 -1.4615693,1.816794 0,1.02628 0.8349619,1.861104 1.8611046,1.861104 1.0261414,0 1.8611031,-0.834824 1.8611031,-1.861104 0,-0.889027 -0.6269507,-1.63334 -1.4615693,-1.816794 V 10.45538 A 2.4031477,2.4031477 0 0 0 7.7680203,9.6043824 l 0.8804388,0.6231726 c -0.048876,0.16624 -0.07625,0.341621 -0.07625,0.523461 0,1.026277 0.8349628,1.861102 1.8611049,1.861102 1.026143,0 1.861104,-0.834825 1.861104,-1.861102 -3e-6,-1.0262766 -0.834963,-1.8611028 -1.861107,-1.8611028 z m 0,-4.3517037 c 0.497598,0 0.902318,0.4048905 0.902318,0.9023521 0,0.4974617 -0.40472,0.9023172 -0.902318,0.9023172 -0.4975975,0 -0.9023179,-0.4048555 -0.9023179,-0.9023172 0,-0.4974616 0.4047204,-0.9023521 0.9023179,-0.9023521 z M 5.0029146,2.8435887 c 0,-0.4974573 0.404756,-0.902319 0.9023536,-0.902319 0.4975963,0 0.9023175,0.4048617 0.9023175,0.902319 0,0.4974616 -0.4047212,0.9023172 -0.9023175,0.9023172 -0.4975976,0 -0.9023536,-0.4048556 -0.9023536,-0.9023172 z M 6.8075857,13.39793 c 0,0.497461 -0.4047212,0.902318 -0.9023175,0.902318 -0.4975976,0 -0.9023536,-0.404857 -0.9023536,-0.902318 0,-0.497462 0.404756,-0.902319 0.9023536,-0.902319 0.4975963,0 0.9023175,0.404857 0.9023175,0.902319 z M 5.9051987,9.3459154 c -0.6939978,0 -1.2585731,-0.5644772 -1.2585731,-1.2584404 0,-0.6939976 0.5645753,-1.2585731 1.2585731,-1.2585731 0.6939645,0 1.25854,0.5645755 1.25854,1.2585731 0,0.6939632 -0.5645755,1.2584404 -1.25854,1.2584404 z m 4.5281123,2.3074526 c -0.4975975,0 -0.9023179,-0.404891 -0.9023179,-0.902352 0,-0.497462 0.4047204,-0.9023186 0.9023179,-0.9023186 0.497598,0 0.902318,0.4048566 0.902318,0.9023186 0,0.497461 -0.40472,0.902352 -0.902318,0.902352 z"
     style="fill:#f0eff1;fill-opacity:1;stroke-width:0.0343478"
     id="path42838" />
  <path
     class="icon-canvas-transparent"
     d="M16 16h-16v-16h16v16z"
     id="canvas" />
  <path
     class="icon-vs-out"
     d="M4 15c-.97 0-2-.701-2-2v-10c0-1.299 1.03-2 2-2h6.061l3.939 3.556v8.444c0 .97-.701 2-2 2h-8z"
     id="outline" />
</svg>
