<?xml version="1.0" encoding="utf-8"?>
<svg version="1.1" id="apicurio" xmlns="http://www.w3.org/2000/svg" xmlns:xlink="http://www.w3.org/1999/xlink" x="0px" y="0px"
	 viewBox="0 0 32 32" xml:space="preserve">
<style type="text/css">
	.st0{fill:#FFFFFF;}
</style>
<g>
	<g>
		<path class="st0" d="M14.54,19.15c-0.03,0-0.03,0-0.05,0l0,0c-1.82-0.13-3.37-2.02-3.37-3.43c0.03-1.09,0.1-2.39,0.16-2.6
			C12.28,7.5,16.49,3.01,21.97,1.58C20.02,0.57,17.79,0,15.45,0C7.59,0,1.18,6.41,1.18,14.27v12.72c0,2.75,2.23,4.98,4.98,4.98
			s4.98-2.23,4.98-4.98v-2.65c0-1.92,1.48-3.5,3.37-3.63l0,0c0.03,0,0.03,0,0.05,0c0.44,0,0.78-0.36,0.78-0.78
			S14.98,19.15,14.54,19.15z"/>
		<g>
			<path class="st0" d="M26.61,6.93c0.75,0,1.51,0.05,2.23,0.16c-0.91-1.53-2.1-2.91-3.48-4c-5.11,0.49-9.45,3.58-11.65,7.94
				c0.75-0.65,1.74-1.06,2.83-1.06c0.31,0,0.62,0.03,0.91,0.1C19.97,8.1,23.16,6.93,26.61,6.93z"/>
			<path class="st0" d="M30.09,9.84c-1.27-0.36-2.62-0.55-4-0.55c-2.47,0-4.78,0.6-6.83,1.66c0.99,0.8,1.61,2,1.61,3.37v1.43
				c0,1.4-1.56,3.3-3.37,3.43l0,0c-0.03,0-0.03,0-0.05,0c-0.44,0-0.78,0.36-0.78,0.78s0.36,0.78,0.78,0.78c0.03,0,0.03,0,0.05,0l0,0
				c1.82,0.13,3.27,1.58,3.37,3.43v2.85c0,2.75,2.23,4.98,4.98,4.98s4.98-2.23,4.98-4.98V14.3C30.82,12.74,30.56,11.24,30.09,9.84z"
				/>
		</g>
	</g>
</g>
</svg>
