<?xml version="1.0" encoding="UTF-8" standalone="no"?>
<svg
   width="16"
   height="16"
   version="1.1"
   id="svg226"
   sodipodi:docname="graphql.svg"
   inkscape:version="1.1.1 (c3084ef, 2021-09-22)"
   xmlns:inkscape="http://www.inkscape.org/namespaces/inkscape"
   xmlns:sodipodi="http://sodipodi.sourceforge.net/DTD/sodipodi-0.dtd"
   xmlns="http://www.w3.org/2000/svg"
   xmlns:svg="http://www.w3.org/2000/svg">
  <defs
     id="defs230" />
  <sodipodi:namedview
     id="namedview228"
     pagecolor="#ffffff"
     bordercolor="#666666"
     borderopacity="1.0"
     inkscape:pageshadow="2"
     inkscape:pageopacity="0.0"
     inkscape:pagecheckerboard="0"
     showgrid="false"
     showguides="true"
     inkscape:zoom="31.243497"
     inkscape:cx="-2.4325062"
     inkscape:cy="14.723064"
     inkscape:window-width="1983"
     inkscape:window-height="1314"
     inkscape:window-x="2260"
     inkscape:window-y="254"
     inkscape:window-maximized="0"
     inkscape:current-layer="svg226" />
  <style
     type="text/css"
     id="style220">.icon-canvas-transparent{opacity:0;fill:#F6F6F6;} .icon-vs-out{opacity:0;fill:#F6F6F6;} .icon-vs-bg{fill:#656565;} .icon-vs-fg{fill:#F0EFF1;}</style>
  <path
     class="icon-canvas-transparent"
     d="M16 16h-16v-16h16v16z"
     id="canvas" />
  <path
     class="icon-vs-out"
     d="M4 15c-.97 0-2-.701-2-2v-10c0-1.299 1.03-2 2-2h6.061l3.939 3.556v8.444c0 .97-.701 2-2 2h-8z"
     id="outline" />
  <path
     class="icon-vs-bg"
     d="M9.641,2H3.964C3.964,2,3,2,3,3c0,0.805,0,7.442,0,10c0,1,0.965,1,0.965,1s7,0,8,0S13,13,13,13V5L9.641,2zM12,13H4V3h5v3h3V13z"
     id="iconBg" />
  <path
     class="icon-vs-fg"
     d="M4 3h5v3h3v7h-8v-10z"
     id="iconFg" />
  <rect
     id="rect19421-4"
     width="14.699147"
     height="2.6383085"
     x="0.73331076"
     y="9.5111332"
     style="fill:#656565;fill-opacity:1;stroke-width:1.09805" />
  <rect
     id="rect19421"
     width="14.223062"
     height="2.2614074"
     x="0.97135359"
     y="9.699584"
     style="fill:#f0eff1;fill-opacity:1" />
  <text
     xml:space="preserve"
     style="font-style:normal;font-weight:normal;font-size:2.66667px;line-height:1.25;font-family:sans-serif;fill:#656565;fill-opacity:1;stroke:none"
     x="7.9689522"
     y="11.799689"
     id="text336"><tspan
       sodipodi:role="line"
       id="tspan334"
       x="7.9689522"
       y="11.799689"
       style="font-size:2.66667px;text-align:center;text-anchor:middle;fill:#656565;fill-opacity:1">GRAPHQL</tspan></text>
  <g
     id="g34809"
     transform="matrix(0.01180845,0,0,0.01202953,5.6487177,4.8586267)"
     style="fill:#656565;fill-opacity:1">
    <g
       id="g34747"
       style="fill:#656565;fill-opacity:1">
      <g
         id="g34745"
         style="fill:#656565;fill-opacity:1">
        <rect
           x="122"
           y="-0.40000001"
           transform="matrix(-0.866,-0.5,0.5,-0.866,163.3196,363.3136)"
           fill="#f6f6f6"
           width="16.6"
           height="320.29999"
           id="rect34743"
           style="fill:#656565;fill-opacity:1" />
      </g>
    </g>
    <g
       id="g34753"
       style="fill:#656565;fill-opacity:1">
      <g
         id="g34751"
         style="fill:#656565;fill-opacity:1">
        <rect
           x="39.799999"
           y="272.20001"
           fill="#f6f6f6"
           width="320.29999"
           height="16.6"
           id="rect34749"
           style="fill:#656565;fill-opacity:1" />
      </g>
    </g>
    <g
       id="g34759"
       style="fill:#656565;fill-opacity:1">
      <g
         id="g34757"
         style="fill:#656565;fill-opacity:1">
        <rect
           x="37.900002"
           y="312.20001"
           transform="matrix(-0.866,-0.5,0.5,-0.866,83.0693,663.3409)"
           fill="#f6f6f6"
           width="185"
           height="16.6"
           id="rect34755"
           style="fill:#656565;fill-opacity:1" />
      </g>
    </g>
    <g
       id="g34765"
       style="fill:#656565;fill-opacity:1">
      <g
         id="g34763"
         style="fill:#656565;fill-opacity:1">
        <rect
           x="177.10001"
           y="71.099998"
           transform="matrix(-0.866,-0.5,0.5,-0.866,463.3409,283.0693)"
           fill="#f6f6f6"
           width="185"
           height="16.6"
           id="rect34761"
           style="fill:#656565;fill-opacity:1" />
      </g>
    </g>
    <g
       id="g34771"
       style="fill:#656565;fill-opacity:1">
      <g
         id="g34769"
         style="fill:#656565;fill-opacity:1">
        <rect
           x="122.1"
           y="-13"
           transform="matrix(-0.5,-0.866,0.866,-0.5,126.7903,232.1221)"
           fill="#f6f6f6"
           width="16.6"
           height="185"
           id="rect34767"
           style="fill:#656565;fill-opacity:1" />
      </g>
    </g>
    <g
       id="g34777"
       style="fill:#656565;fill-opacity:1">
      <g
         id="g34775"
         style="fill:#656565;fill-opacity:1">
        <rect
           x="109.6"
           y="151.60001"
           transform="matrix(-0.5,-0.866,0.866,-0.5,266.0828,473.3766)"
           fill="#f6f6f6"
           width="320.29999"
           height="16.6"
           id="rect34773"
           style="fill:#656565;fill-opacity:1" />
      </g>
    </g>
    <g
       id="g34783"
       style="fill:#656565;fill-opacity:1">
      <g
         id="g34781"
         style="fill:#656565;fill-opacity:1">
        <rect
           x="52.5"
           y="107.5"
           fill="#f6f6f6"
           width="16.6"
           height="185"
           id="rect34779"
           style="fill:#656565;fill-opacity:1" />
      </g>
    </g>
    <g
       id="g34789"
       style="fill:#656565;fill-opacity:1">
      <g
         id="g34787"
         style="fill:#656565;fill-opacity:1">
        <rect
           x="330.89999"
           y="107.5"
           fill="#f6f6f6"
           width="16.6"
           height="185"
           id="rect34785"
           style="fill:#656565;fill-opacity:1" />
      </g>
    </g>
    <g
       id="g34795"
       style="fill:#656565;fill-opacity:1">
      <g
         id="g34793"
         style="fill:#656565;fill-opacity:1">
        <rect
           x="262.39999"
           y="240.10001"
           transform="matrix(-0.5,-0.866,0.866,-0.5,126.7953,714.2875)"
           fill="#f6f6f6"
           width="14.5"
           height="160.89999"
           id="rect34791"
           style="fill:#656565;fill-opacity:1" />
      </g>
    </g>
    <path
       fill="#f6f6f6"
       d="m 369.5,297.9 c -9.6,16.7 -31,22.4 -47.7,12.8 -16.7,-9.6 -22.4,-31 -12.8,-47.7 9.6,-16.7 31,-22.4 47.7,-12.8 16.8,9.7 22.5,31 12.8,47.7"
       id="path34797"
       style="fill:#656565;fill-opacity:1" />
    <path
       fill="#f6f6f6"
       d="m 90.9,137 c -9.6,16.7 -31,22.4 -47.7,12.8 -16.7,-9.6 -22.4,-31 -12.8,-47.7 9.6,-16.7 31,-22.4 47.7,-12.8 16.7,9.7 22.4,31 12.8,47.7"
       id="path34799"
       style="fill:#656565;fill-opacity:1" />
    <path
       fill="#f6f6f6"
       d="m 30.5,297.9 c -9.6,-16.7 -3.9,-38 12.8,-47.7 16.7,-9.6 38,-3.9 47.7,12.8 9.6,16.7 3.9,38 -12.8,47.7 -16.8,9.6 -38.1,3.9 -47.7,-12.8"
       id="path34801"
       style="fill:#656565;fill-opacity:1" />
    <path
       fill="#f6f6f6"
       d="m 309.1,137 c -9.6,-16.7 -3.9,-38 12.8,-47.7 16.7,-9.6 38,-3.9 47.7,12.8 9.6,16.7 3.9,38 -12.8,47.7 -16.7,9.6 -38.1,3.9 -47.7,-12.8"
       id="path34803"
       style="fill:#656565;fill-opacity:1" />
    <path
       fill="#f6f6f6"
       d="m 200,395.8 c -19.3,0 -34.9,-15.6 -34.9,-34.9 0,-19.3 15.6,-34.9 34.9,-34.9 19.3,0 34.9,15.6 34.9,34.9 0,19.2 -15.6,34.9 -34.9,34.9"
       id="path34805"
       style="fill:#656565;fill-opacity:1" />
    <path
       fill="#f6f6f6"
       d="m 200,74 c -19.3,0 -34.9,-15.6 -34.9,-34.9 0,-19.3 15.6,-34.9 34.9,-34.9 19.3,0 34.9,15.6 34.9,34.9 0,19.3 -15.6,34.9 -34.9,34.9"
       id="path34807"
       style="fill:#656565;fill-opacity:1" />
  </g>
</svg>
