<?xml version="1.0" encoding="UTF-8" standalone="no"?>
<svg
   width="16"
   height="16"
   version="1.1"
   id="svg226"
   sodipodi:docname="json.svg"
   inkscape:version="1.1.1 (c3084ef, 2021-09-22)"
   xmlns:inkscape="http://www.inkscape.org/namespaces/inkscape"
   xmlns:sodipodi="http://sodipodi.sourceforge.net/DTD/sodipodi-0.dtd"
   xmlns:xlink="http://www.w3.org/1999/xlink"
   xmlns="http://www.w3.org/2000/svg"
   xmlns:svg="http://www.w3.org/2000/svg">
  <defs
     id="defs230">
    <linearGradient
       inkscape:collect="always"
       id="linearGradient23027">
      <stop
         style="stop-color:#656565;stop-opacity:1;"
         offset="0"
         id="stop23023" />
      <stop
         style="stop-color:#656565;stop-opacity:0;"
         offset="1"
         id="stop23025" />
    </linearGradient>
    <linearGradient
       inkscape:collect="always"
       id="linearGradient20716">
      <stop
         style="stop-color:#656565;stop-opacity:1;"
         offset="0"
         id="stop20712" />
      <stop
         style="stop-color:#656565;stop-opacity:0;"
         offset="1"
         id="stop20714" />
    </linearGradient>
    <linearGradient
       x1="-666.11664"
       y1="413.04492"
       x2="-553.2699"
       y2="525.90759"
       id="linearGradient3005"
       xlink:href="#linearGradient8385"
       gradientUnits="userSpaceOnUse"
       gradientTransform="matrix(0.0333159,0,0,0.0333112,28.130519,-8.7819927)" />
    <linearGradient
       id="linearGradient8385">
      <stop
         id="stop8387"
         style="stop-color:#000000;stop-opacity:1"
         offset="0" />
      <stop
         id="stop8389"
         style="stop-color:#ffffff;stop-opacity:1"
         offset="1" />
    </linearGradient>
    <linearGradient
       x1="-553.26971"
       y1="525.90778"
       x2="-666.11639"
       y2="413.0452"
       id="linearGradient3002"
       xlink:href="#linearGradient8385"
       gradientUnits="userSpaceOnUse"
       gradientTransform="matrix(0.0333159,0,0,0.0333112,28.130519,-8.7819927)" />
    <linearGradient
       inkscape:collect="always"
       xlink:href="#linearGradient20716"
       id="linearGradient20718"
       x1="0.87993452"
       y1="7.8715586"
       x2="14.120317"
       y2="7.8715586"
       gradientUnits="userSpaceOnUse" />
    <linearGradient
       inkscape:collect="always"
       xlink:href="#linearGradient23027"
       id="linearGradient23029"
       x1="3.3344749"
       y1="7.8671792"
       x2="15.016832"
       y2="7.8671792"
       gradientUnits="userSpaceOnUse" />
  </defs>
  <sodipodi:namedview
     id="namedview228"
     pagecolor="#ffffff"
     bordercolor="#666666"
     borderopacity="1.0"
     inkscape:pageshadow="2"
     inkscape:pageopacity="0.0"
     inkscape:pagecheckerboard="0"
     showgrid="false"
     showguides="false"
     inkscape:zoom="53.408099"
     inkscape:cx="9.1933622"
     inkscape:cy="9.7176273"
     inkscape:window-width="1983"
     inkscape:window-height="1314"
     inkscape:window-x="2260"
     inkscape:window-y="198"
     inkscape:window-maximized="0"
     inkscape:current-layer="svg226" />
  <style
     type="text/css"
     id="style220">.icon-canvas-transparent{opacity:0;fill:#F6F6F6;} .icon-vs-out{opacity:0;fill:#F6F6F6;} .icon-vs-bg{fill:#656565;} .icon-vs-fg{fill:#F0EFF1;}</style>
  <path
     d="m 7.9364196,11.321846 c 3.1275844,4.263631 6.1883894,-1.19002 6.1838924,-4.4696232 -0.0053,-3.8775792 -3.935438,-6.0447337 -6.1864547,-6.0447337 -3.6130747,0 -7.05392278,2.9860735 -7.05392278,7.0716203 0,4.5411256 3.94422748,7.0565186 7.05392278,7.0565186 C 7.2301514,14.834306 4.8850409,14.33181 4.8535223,8.9303817 4.8323219,5.2771779 6.0452257,3.8176391 7.9287649,4.459672 c 0.04219,0.015655 2.0775861,0.8185713 2.0775861,3.4414979 0,2.6117851 -2.0699314,3.4206761 -2.0699314,3.4206761 z"
     id="path7508"
     style="color:#000000;display:inline;overflow:visible;visibility:visible;fill:url(#linearGradient20718);fill-opacity:1;fill-rule:evenodd;stroke:none;stroke-width:0.0441778;marker:none" />
  <path
     d="M 7.9327685,4.4567244 C 5.8661264,3.7444118 3.3344749,5.4477041 3.3344749,8.8593795 c 0,5.5706425 4.1280227,6.0762485 4.6284356,6.0762485 3.6130745,0 7.0539215,-2.986073 7.0539215,-7.0716204 0,-4.5411252 -3.944228,-7.0565185 -7.0539215,-7.0565185 0.8612999,-0.11928088 4.6422805,0.9321438 4.6422805,6.0997885 0,3.3699864 -2.8232151,5.2045844 -4.6594753,4.4207354 C 7.9035257,11.312353 5.86813,10.509442 5.86813,7.8865152 c 0,-2.6117849 2.0646385,-3.4297908 2.0646385,-3.4297908 z"
     id="path7510"
     style="color:#000000;display:inline;overflow:visible;visibility:visible;fill:url(#linearGradient23029);fill-opacity:1;fill-rule:evenodd;stroke:none;stroke-width:0.0450327;stroke-miterlimit:4;stroke-dasharray:none;marker:none" />
  <path
     class="icon-canvas-transparent"
     d="M16 16h-16v-16h16v16z"
     id="canvas" />
  <path
     class="icon-vs-out"
     d="M4 15c-.97 0-2-.701-2-2v-10c0-1.299 1.03-2 2-2h6.061l3.939 3.556v8.444c0 .97-.701 2-2 2h-8z"
     id="outline" />
</svg>
