<?xml version="1.0" encoding="UTF-8" standalone="no"?>
<svg
   width="16"
   height="16"
   version="1.1"
   id="svg226"
   sodipodi:docname="json.svg"
   inkscape:version="1.1.1 (c3084ef, 2021-09-22)"
   xmlns:inkscape="http://www.inkscape.org/namespaces/inkscape"
   xmlns:sodipodi="http://sodipodi.sourceforge.net/DTD/sodipodi-0.dtd"
   xmlns:xlink="http://www.w3.org/1999/xlink"
   xmlns="http://www.w3.org/2000/svg"
   xmlns:svg="http://www.w3.org/2000/svg">
  <defs
     id="defs230">
    <linearGradient
       x1="-666.11664"
       y1="413.04492"
       x2="-553.2699"
       y2="525.90759"
       id="linearGradient3005"
       xlink:href="#linearGradient8385"
       gradientUnits="userSpaceOnUse"
       gradientTransform="matrix(0.0333159,0,0,0.0333112,28.130519,-8.7819927)" />
    <linearGradient
       id="linearGradient8385">
      <stop
         id="stop8387"
         style="stop-color:#000000;stop-opacity:1"
         offset="0" />
      <stop
         id="stop8389"
         style="stop-color:#ffffff;stop-opacity:1"
         offset="1" />
    </linearGradient>
    <linearGradient
       x1="-553.26971"
       y1="525.90778"
       x2="-666.11639"
       y2="413.0452"
       id="linearGradient3002"
       xlink:href="#linearGradient8385"
       gradientUnits="userSpaceOnUse"
       gradientTransform="matrix(0.0333159,0,0,0.0333112,28.130519,-8.7819927)" />
  </defs>
  <sodipodi:namedview
     id="namedview228"
     pagecolor="#ffffff"
     bordercolor="#666666"
     borderopacity="1.0"
     inkscape:pageshadow="2"
     inkscape:pageopacity="0.0"
     inkscape:pagecheckerboard="0"
     showgrid="false"
     showguides="false"
     inkscape:zoom="53.408099"
     inkscape:cx="9.4554948"
     inkscape:cy="10.391682"
     inkscape:window-width="1983"
     inkscape:window-height="1314"
     inkscape:window-x="2260"
     inkscape:window-y="254"
     inkscape:window-maximized="0"
     inkscape:current-layer="svg226" />
  <style
     type="text/css"
     id="style220">.icon-canvas-transparent{opacity:0;fill:#F6F6F6;} .icon-vs-out{opacity:0;fill:#F6F6F6;} .icon-vs-bg{fill:#656565;} .icon-vs-fg{fill:#F0EFF1;}</style>
  <path
     class="icon-vs-fg"
     d="M4 3h5v3h3v7h-8v-10z"
     id="iconFg" />
  <path
     d="M 7.8128007,8.1602466 C 8.9934759,9.7697838 10.148942,7.7110097 10.147244,6.4729465 10.145229,5.0091452 8.6616011,4.1910359 7.8118334,4.1910359 c -1.3639498,0 -2.6628834,1.1272544 -2.6628834,2.6695643 0,1.7142924 1.4889613,2.6638632 2.6628834,2.6638632 C 7.5461817,9.4862141 6.6608933,9.2965198 6.6489949,7.2574596 6.6409917,5.8783609 7.0988676,5.3273793 7.809911,5.5697492 c 0.015927,0.00591 0.7842967,0.3090139 0.7842967,1.2991789 0,0.985959 -0.781407,1.2913185 -0.781407,1.2913185 z"
     id="path7508"
     style="color:#000000;display:inline;overflow:visible;visibility:visible;fill:url(#linearGradient3005);fill-opacity:1;fill-rule:evenodd;stroke:none;stroke-width:0.0166773;marker:none" />
  <path
     d="M 7.8114224,5.5686365 C 7.0312569,5.2997357 6.0755486,5.9427352 6.0755486,7.230656 c 0,2.1029394 1.5583447,2.2938074 1.7472525,2.2938074 1.3639498,0 2.6628829,-1.1272543 2.6628829,-2.6695642 0,-1.7142925 -1.4889616,-2.6638633 -2.6628829,-2.6638633 0.3251441,-0.045029 1.7524791,0.3518879 1.7524791,2.302694 0,1.2721831 -1.0657749,1.9647508 -1.7589702,1.6688449 -0.015927,-0.00591 -0.7842967,-0.3090139 -0.7842967,-1.2991789 0,-0.985959 0.7794091,-1.2947594 0.7794091,-1.2947594 z"
     id="path7510"
     style="color:#000000;display:inline;overflow:visible;visibility:visible;fill:url(#linearGradient3002);fill-opacity:1;fill-rule:evenodd;stroke:none;stroke-width:0.0166773;marker:none" />
  <path
     class="icon-canvas-transparent"
     d="M16 16h-16v-16h16v16z"
     id="canvas" />
  <path
     class="icon-vs-out"
     d="M4 15c-.97 0-2-.701-2-2v-10c0-1.299 1.03-2 2-2h6.061l3.939 3.556v8.444c0 .97-.701 2-2 2h-8z"
     id="outline" />
  <g
     id="g42131">
    <path
       class="icon-vs-bg"
       d="M9.641,2H3.964C3.964,2,3,2,3,3c0,0.805,0,7.442,0,10c0,1,0.965,1,0.965,1s7,0,8,0S13,13,13,13V5L9.641,2zM12,13H4V3h5v3h3V13z"
       id="iconBg" />
  </g>
  <rect
     id="rect19421-4"
     width="14.699147"
     height="2.6383085"
     x="0.73331076"
     y="9.5111332"
     style="fill:#656565;fill-opacity:1;stroke-width:1.09805" />
  <rect
     id="rect19421"
     width="14.223062"
     height="2.2614074"
     x="0.97135359"
     y="9.699584"
     style="fill:#f0eff1;fill-opacity:1" />
  <text
     xml:space="preserve"
     style="font-style:normal;font-weight:normal;font-size:2.66667px;line-height:1.25;font-family:sans-serif;fill:#656565;fill-opacity:1;stroke:none"
     x="7.9689522"
     y="11.799689"
     id="text336"><tspan
       sodipodi:role="line"
       id="tspan334"
       x="7.9689522"
       y="11.799689"
       style="font-size:2.66667px;text-align:center;text-anchor:middle;fill:#656565;fill-opacity:1">JSON</tspan></text>
</svg>
