<?xml version="1.0" encoding="UTF-8" standalone="no"?>
<svg
   width="16"
   height="16"
   version="1.1"
   id="svg226"
   sodipodi:docname="openapi.svg"
   inkscape:version="1.1.1 (c3084ef, 2021-09-22)"
   xmlns:inkscape="http://www.inkscape.org/namespaces/inkscape"
   xmlns:sodipodi="http://sodipodi.sourceforge.net/DTD/sodipodi-0.dtd"
   xmlns:xlink="http://www.w3.org/1999/xlink"
   xmlns="http://www.w3.org/2000/svg"
   xmlns:svg="http://www.w3.org/2000/svg">
  <defs
     id="defs230">
    <linearGradient
       x1="-666.11664"
       y1="413.04492"
       x2="-553.2699"
       y2="525.90759"
       id="linearGradient3005"
       xlink:href="#linearGradient8385"
       gradientUnits="userSpaceOnUse"
       gradientTransform="matrix(0.0333159,0,0,0.0333112,28.130519,-8.7819927)" />
    <linearGradient
       id="linearGradient8385">
      <stop
         id="stop8387"
         style="stop-color:#000000;stop-opacity:1"
         offset="0" />
      <stop
         id="stop8389"
         style="stop-color:#ffffff;stop-opacity:1"
         offset="1" />
    </linearGradient>
    <linearGradient
       x1="-553.26971"
       y1="525.90778"
       x2="-666.11639"
       y2="413.0452"
       id="linearGradient3002"
       xlink:href="#linearGradient8385"
       gradientUnits="userSpaceOnUse"
       gradientTransform="matrix(0.0333159,0,0,0.0333112,28.130519,-8.7819927)" />
  </defs>
  <sodipodi:namedview
     id="namedview228"
     pagecolor="#ffffff"
     bordercolor="#666666"
     borderopacity="1.0"
     inkscape:pageshadow="2"
     inkscape:pageopacity="0.0"
     inkscape:pagecheckerboard="0"
     showgrid="false"
     showguides="false"
     inkscape:zoom="30.850781"
     inkscape:cx="-7.0662716"
     inkscape:cy="17.536023"
     inkscape:window-width="1983"
     inkscape:window-height="1314"
     inkscape:window-x="2260"
     inkscape:window-y="170"
     inkscape:window-maximized="0"
     inkscape:current-layer="svg226" />
  <style
     type="text/css"
     id="style220">.icon-canvas-transparent{opacity:0;fill:#F6F6F6;} .icon-vs-out{opacity:0;fill:#F6F6F6;} .icon-vs-bg{fill:#656565;} .icon-vs-fg{fill:#F0EFF1;}</style>
  <g
     transform="matrix(0.12170177,0,0,0.12170177,0.90117322,0.89847748)"
     id="g45022"
     style="fill:#656565;fill-opacity:1">
    <path
       d="M 32.6,67.4 H 3.044 l 0.017,0.433 0.05,0.833 0.022,0.356 0.08,0.962 0.02,0.215 0.115,1.065 a 1.16,1.16 0 0 0 0.011,0.103 l 0.15,1.144 c 0.342,2.37 0.85,4.704 1.53,6.998 l 0.01,0.03 0.353,1.14 0.02,0.063 0.325,0.968 0.086,0.244 0.304,0.837 0.143,0.378 0.27,0.7 0.213,0.52 0.226,0.54 0.3,0.658 0.175,0.4 0.368,0.787 0.122,0.252 0.443,0.895 0.07,0.137 0.54,1.025 0.115,0.2 L 34.447,74 c -0.996,-2.1 -1.616,-4.332 -1.846,-6.6 z m -28.16,13.562 0.008,0.027 0.954,-0.3 z"
       fill="#93d500"
       id="path44988"
       style="fill:#b4b4b4;fill-opacity:1" />
    <path
       d="m 39.865,80.977 -20.9,20.89 0.323,0.298 0.893,0.792 0.71,0.602 0.192,0.16 0.812,0.654 0.105,0.083 0.894,0.686 a 0.23,0.23 0 0 1 0.034,0.025 l 3.895,2.633 0.14,0.085 0.767,0.453 0.47,0.268 0.446,0.25 0.814,0.44 0.113,0.06 2.303,1.118 11.247,-27.32 c -1.142,-0.61 -2.238,-1.334 -3.27,-2.18 z"
       fill="#4d5a31"
       id="path44990"
       style="fill:#656565;fill-opacity:1" />
    <path
       d="m 37.697,78.904 -0.65,-0.765 -0.54,-0.697 -0.578,-0.818 -0.54,-0.843 -25.276,15.225 1.302,2.045 0.105,0.154 0.006,0.01 1.358,1.914 0.03,0.04 0.03,0.04 0.614,0.8 0.737,0.915 0.158,0.19 0.604,0.713 0.266,0.302 0.524,0.6 0.297,0.322 0.135,0.146 0.4,0.42 0.16,0.164 0.7,0.716 20.85,-20.85 -0.683,-0.73 z"
       fill="#6ba43a"
       id="path44992"
       style="fill:#8c8c8c;fill-opacity:1" />
    <path
       d="m 65.334,80.966 -0.697,0.54 0.052,0.087 15.202,25.235 2.08,-1.432 c 1.47,-1.085 2.895,-2.26 4.267,-3.527 L 65.416,81.049 Z"
       fill="#4d5a31"
       id="path44994"
       style="fill:#656565;fill-opacity:1" />
    <g
       fill="#93d500"
       id="g45010"
       style="fill:#656565;fill-opacity:1">
      <path
         d="m 77.97,108.03 0.034,-0.02 -0.001,-0.001 -0.033,0.02 z m -0.015,0.01 h 0.001 v 0 z"
         id="path44996"
         style="fill:#656565;fill-opacity:1" />
      <path
         d="m 78.003,108 0.2,-0.1 -0.004,-0.007 -0.196,0.117 z m -0.043,0.035 0.01,-0.005 z"
         id="path44998"
         style="fill:#656565;fill-opacity:1" />
      <path
         d="m 77.955,108.04 h 0.001 l -0.037,-0.062 z m 0.015,-0.01 0.034,-0.018 z m -0.02,0.01 -0.01,0.005 0.01,-0.004 z"
         id="path45000"
         style="fill:#656565;fill-opacity:1" />
      <path
         d="m 77.95,108.04 v 10e-4 l 0.005,-0.003 h -0.001 z"
         id="path45002"
         style="fill:#656565;fill-opacity:1" />
      <path
         d="m 77.96,108.035 -0.006,0.003 0.015,-0.01 z m 0.044,-0.023 0.198,-0.112 z m 0.198,-0.112 -0.004,-0.007 z m -0.268,0.15 h 0.002 z"
         id="path45004"
         style="fill:#656565;fill-opacity:1" />
      <path
         d="m 77.942,108.047 -0.006,0.003 z"
         id="path45006"
         style="fill:#656565;fill-opacity:1" />
      <path
         d="m 77.682,107.036 -14.706,-24.4 -0.874,0.487 -0.896,0.45 a 20.15,20.15 0 0 1 -8.632,1.953 20.1,20.1 0 0 1 -5.742,-0.838 l -0.945,-0.332 -0.944,-0.335 -11.226,27.265 0.082,0.03 0.086,0.033 h 0.001 l 0.022,0.01 2.155,0.825 a 49.94,49.94 0 0 0 10.12,2.422 17.83,17.83 0 0 1 0.404,0.054 l 1.222,0.133 0.198,0.017 0.98,0.082 0.333,0.02 0.858,0.05 0.526,0.02 0.682,0.024 1.218,0.015 a 49.76,49.76 0 0 0 8.233,-0.686 l 0.138,-0.02 0.864,-0.157 0.5,-0.095 0.505,-0.106 0.842,-0.185 0.152,-0.035 a 49.85,49.85 0 0 0 11.897,-4.436 l 0.001,-0.001 0.73,-0.4 1.483,-0.836 -0.024,-0.07 0.037,0.063 0.048,-0.028 0.195,-0.117 z M 39.876,49.852 40.573,49.312 40.521,49.225 25.32,24 23.235,25.436 c -1.47,1.082 -2.893,2.257 -4.262,3.522 L 39.795,49.77 Z"
         id="path45008"
         style="fill:#b4b4b4;fill-opacity:1" />
    </g>
    <path
       d="m 17.53,30.334 -1.384,1.445 c -1.538,1.665 -2.944,3.4 -4.212,5.22 l -0.182,0.26 -0.423,0.625 -0.43,0.656 -0.156,0.24 a 49.48,49.48 0 0 0 -7.7,24.627 l -0.027,1 -0.017,1 h 29.488 l 0.048,-1 0.055,-1 a 20.01,20.01 0 0 1 4.447,-10.74 c 0.2,-0.256 0.447,-0.496 0.672,-0.743 0.225,-0.247 0.432,-0.504 0.67,-0.742 z m 60.843,-7.32 -0.122,-0.073 -0.783,-0.465 -0.457,-0.26 -0.46,-0.256 -0.8,-0.432 -0.126,-0.066 c -1.73,-0.904 -3.505,-1.7 -5.318,-2.4 l -0.14,-0.054 -1.2,-0.433 c -3.22,-1.125 -6.552,-1.914 -9.936,-2.358 l -0.415,-0.056 -0.415,-0.046 -0.8,-0.087 -0.224,-0.02 -0.953,-0.08 -1.2,-0.073 -0.434,-0.017 v 29.56 c 1.517,0.157 3.02,0.48 4.478,0.975 L 80.83,24.63 a 48.97,48.97 0 0 0 -2.464,-1.614 z"
       fill="#4d5a31"
       id="path45012"
       style="fill:#656565;fill-opacity:1" />
    <path
       d="M 27.53,23.78 27.014,22.923 Z M 27,22.92 l 0.003,0.005 z m 24.606,-7.095 -1,0.02 c -2.086,0.084 -4.168,0.297 -6.233,0.643 l -0.136,0.023 -0.865,0.157 -0.5,0.094 -0.508,0.106 -0.84,0.184 -0.153,0.034 a 49.89,49.89 0 0 0 -11.898,4.438 l -2.47,1.394 0.003,0.005 15.22,25.27 0.874,-0.487 a 19.71,19.71 0 0 1 0.895,-0.451 20.05,20.05 0 0 1 6.601,-1.85 l 1,-0.08 1,-0.034 0.001,-29.487 c -0.334,-10e-4 -0.667,0.013 -1,0.02 z"
       fill="#6ba43a"
       id="path45014"
       style="fill:#8c8c8c;fill-opacity:1" />
    <path
       d="m 102.15,62.97 -0.048,-0.795 -0.026,-0.397 -0.077,-0.934 -0.02,-0.242 -0.11,-1.043 -0.01,-0.084 -0.005,-0.04 -0.15,-1.124 c -10e-4,-0.01 -0.002,-0.025 -0.005,-0.035 a 49.56,49.56 0 0 0 -1.524,-6.972 l -0.014,-0.044 -0.328,-1.063 -0.045,-0.14 -0.32,-0.954 -0.09,-0.258 -0.3,-0.823 -0.15,-0.39 -0.265,-0.678 -0.218,-0.534 -0.22,-0.526 -0.294,-0.67 -0.17,-0.378 -0.373,-0.797 -0.116,-0.242 -0.448,-0.906 -0.065,-0.125 -0.52,-1 c -0.007,-0.01 -0.012,-0.024 -0.02,-0.035 -0.86,-1.58 -1.802,-3.108 -2.822,-4.578 L 71.632,58.93 a 20.5,20.5 0 0 1 0.974,4.477 h 29.56 z"
       fill="#4d5a31"
       id="path45016"
       style="fill:#656565;fill-opacity:1" />
    <path
       d="m 72.722,65.408 -0.048,1 -0.055,1 c -0.38,3.84 -1.863,7.6 -4.446,10.74 -0.2,0.256 -0.447,0.496 -0.672,0.743 -0.225,0.247 -0.432,0.504 -0.67,0.742 l 20.85,20.85 c 0.237,-0.237 0.46,-0.482 0.69,-0.723 l 0.69,-0.723 c 1.543,-1.67 2.953,-3.42 4.224,-5.236 l 0.148,-0.214 0.458,-0.673 0.395,-0.605 0.2,-0.295 c 4.782,-7.51 7.34,-16.02 7.685,-24.607 l 0.027,-1 0.017,-1 H 72.722 Z"
       fill="#6ba43a"
       id="path45018"
       style="fill:#8c8c8c;fill-opacity:1" />
    <path
       d="m 110.967,7.046 c -5.395,-5.395 -14.142,-5.395 -19.536,0 -4.304,4.303 -5.164,10.736 -2.6,15.902 L 58.74,53.04 c -5.166,-2.562 -11.6,-1.703 -15.903,2.6 a 13.82,13.82 0 0 0 0,19.537 13.82,13.82 0 0 0 19.538,-0.001 c 4.303,-4.303 5.162,-10.736 2.6,-15.903 l 30.09,-30.09 c 5.167,2.562 11.6,1.703 15.902,-2.6 5.396,-5.393 5.396,-14.14 0.001,-19.535 z"
       fill="#424143"
       id="path45020"
       style="fill:#656565;fill-opacity:1" />
  </g>
  <path
     class="icon-canvas-transparent"
     d="M16 16h-16v-16h16v16z"
     id="canvas" />
  <path
     class="icon-vs-out"
     d="M4 15c-.97 0-2-.701-2-2v-10c0-1.299 1.03-2 2-2h6.061l3.939 3.556v8.444c0 .97-.701 2-2 2h-8z"
     id="outline" />
</svg>
